<?xml version="1.0" encoding="utf-8"?>
<!-- Generator: Adobe Illustrator 16.0.4, SVG Export Plug-In . SVG Version: 6.00 Build 0)  -->
<!DOCTYPE svg PUBLIC "-//W3C//DTD SVG 1.1//EN" "http://www.w3.org/Graphics/SVG/1.1/DTD/svg11.dtd">
<svg version="1.1" xmlns="http://www.w3.org/2000/svg" xmlns:xlink="http://www.w3.org/1999/xlink" x="0px" y="0px" width="44px"
	 height="28px" viewBox="0 0 44 28" enable-background="new 0 0 44 28" xml:space="preserve">
<g id="Layer_1">
</g>
<g id="Bags_Small">
</g>
<g id="Toy_Small">
</g>
<g id="Bike_Small">
</g>
<g id="Wallet_Small_1_">
	<g>
		<path fill="#FFFFFF" d="M35.742,4.769h-1.055V3.18H29.39v1.589h-2.12v-3.07C27.27,0.762,26.509,0,25.571,0h-8.261
			c-0.936,0-1.698,0.762-1.698,1.699v3.07h-2.119V3.18H8.194v1.589H7.14c-0.879,0-1.595,0.716-1.595,1.595v19.065
			c0,0.88,0.716,1.595,1.595,1.595h28.603c0.879,0,1.596-0.715,1.596-1.595V6.364C37.338,5.485,36.621,4.769,35.742,4.769
			L35.742,4.769z M30.449,4.239h3.179v0.53h-3.179V4.239z M16.673,1.699c0-0.353,0.286-0.64,0.638-0.64h8.261
			c0.353,0,0.639,0.287,0.639,0.64v3.07h-9.537V1.699z M15.612,5.828h16.426v20.135H10.845V5.828H15.612z M9.254,4.239h3.181v0.53
			H9.254V4.239z M6.604,25.429V6.364c0-0.295,0.241-0.536,0.535-0.536h2.645v20.135H7.14C6.846,25.963,6.604,25.724,6.604,25.429
			L6.604,25.429z M36.276,25.429c0,0.295-0.238,0.534-0.534,0.534h-2.645V5.828h2.645c0.296,0,0.534,0.24,0.534,0.536V25.429z
			 M36.276,25.429"/>
	</g>
</g>
<g id="Phone_Small">
</g>
<g id="Wallet_Small">
</g>
<g id="Keys_Small">
</g>
</svg>
