<?xml version="1.0" encoding="utf-8"?>
<!-- Generator: Adobe Illustrator 16.0.4, SVG Export Plug-In . SVG Version: 6.00 Build 0)  -->
<!DOCTYPE svg PUBLIC "-//W3C//DTD SVG 1.1//EN" "http://www.w3.org/Graphics/SVG/1.1/DTD/svg11.dtd">
<svg version="1.1" xmlns="http://www.w3.org/2000/svg" xmlns:xlink="http://www.w3.org/1999/xlink" x="0px" y="0px" width="44px"
	 height="28px" viewBox="0 0 44 28" enable-background="new 0 0 44 28" xml:space="preserve">
<g id="Layer_1">
</g>
<g id="Bags_Small">
</g>
<g id="Toy_Small">
</g>
<g id="Bike_Small">
</g>
<g id="Wallet_Small_1_">
</g>
<g id="Phone_Small">
</g>
<g id="Wallet_Small">
</g>
<g id="Keys_Small">
	<g>
		<g>
			<g>
				<path fill="#FFFFFF" d="M22.362,2.119c-0.697,0.044-1.387,0.215-2.043,0.509c-2.2,0.986-3.567,3.184-3.505,5.562L6.3,12.902
					l-1.16,3.024l5.45,2.084l0.801-2.102l2.101,0.801l0.801-2.101l2.101,0.801l0.926-2.433l1.365-0.612
					c0.562,0.525,1.228,0.942,1.948,1.217c0.292,0.111,0.591,0.199,0.892,0.263l0.108-1.218c-0.192-0.046-0.382-0.105-0.569-0.177
					c-0.684-0.261-1.305-0.681-1.798-1.218l-0.295-0.321l-2.603,1.167l-0.675,1.77l-2.1-0.8l-0.801,2.101l-2.101-0.801l-0.8,2.101
					l-3.186-1.218l0.547-1.426l10.84-4.858L18.047,8.51c-0.204-2.024,0.908-3.944,2.768-4.777c0.165-0.075,0.333-0.139,0.503-0.193"
					/>
			</g>
		</g>
		<g>
			<g>
				<path fill="#FFFFFF" d="M26.325,3.17c-0.667,0.234-1.204,0.713-1.512,1.352c-0.634,1.316-0.078,2.902,1.238,3.536
					c0.637,0.307,1.355,0.347,2.023,0.114c0.668-0.234,1.205-0.713,1.512-1.352c0.634-1.315,0.078-2.902-1.237-3.536
					C27.712,2.977,26.993,2.938,26.325,3.17L26.325,3.17z M28.283,6.192c-0.141,0.289-0.384,0.507-0.686,0.613
					c-0.304,0.106-0.63,0.087-0.918-0.051c-0.598-0.288-0.85-1.007-0.562-1.604c0.139-0.289,0.383-0.507,0.685-0.613
					c0.304-0.106,0.63-0.087,0.919,0.051C28.318,4.875,28.57,5.595,28.283,6.192L28.283,6.192z M28.283,6.192"/>
				<path fill="#FFFFFF" d="M29.591,0.705c-1.706-0.822-3.631-0.929-5.418-0.304c-1.787,0.626-3.224,1.91-4.046,3.617
					c-1.25,2.597-0.805,5.659,1.085,7.785l-5.976,12.41l1.272,3.66l6.587-2.298l-0.888-2.538l2.538-0.888l-0.889-2.537l2.538-0.888
					l-1.028-2.938l0.776-1.612c0.917,0.048,1.846-0.084,2.716-0.39c1.787-0.625,3.225-1.909,4.046-3.615
					C34.6,6.647,33.113,2.401,29.591,0.705L29.591,0.705z M31.6,9.542c-0.654,1.357-1.798,2.379-3.22,2.877
					c-0.826,0.289-1.719,0.383-2.582,0.273l-0.518-0.066l-1.479,3.074l0.747,2.137l-2.536,0.889l0.887,2.536l-2.537,0.889
					l0.887,2.537l-3.85,1.343l-0.6-1.727l6.161-12.794l-0.375-0.363c-1.747-1.694-2.211-4.306-1.155-6.5
					c0.654-1.358,1.799-2.38,3.221-2.878c1.422-0.498,2.953-0.412,4.312,0.242C31.767,3.359,32.949,6.739,31.6,9.542L31.6,9.542z
					 M31.6,9.542"/>
			</g>
		</g>
	</g>
</g>
</svg>
