<?xml version="1.0" encoding="utf-8"?>
<!-- Generator: Adobe Illustrator 16.0.4, SVG Export Plug-In . SVG Version: 6.00 Build 0)  -->
<!DOCTYPE svg PUBLIC "-//W3C//DTD SVG 1.1//EN" "http://www.w3.org/Graphics/SVG/1.1/DTD/svg11.dtd">
<svg version="1.1" xmlns="http://www.w3.org/2000/svg" xmlns:xlink="http://www.w3.org/1999/xlink" x="0px" y="0px" width="44px"
	 height="28px" viewBox="0 0 44 28" enable-background="new 0 0 44 28" xml:space="preserve">
<g id="Layer_1">
</g>
<g id="Bags_Small">
</g>
<g id="Toy_Small">
</g>
<g id="Bike_Small">
</g>
<g id="Wallet_Small_1_">
</g>
<g id="Phone_Small">
	<path fill="none" stroke="#FFFFFF" stroke-miterlimit="10" d="M29.34,24.79c0,0.934-0.757,1.689-1.691,1.689H17.101
		c-0.934,0-1.691-0.756-1.691-1.689V2.138c0-0.934,0.758-1.691,1.691-1.691h10.548c0.935,0,1.691,0.757,1.691,1.691V24.79z"/>
	
		<rect x="17.092" y="3.668" fill="none" stroke="#FFFFFF" stroke-width="0.75" stroke-miterlimit="10" width="10.565" height="18.421"/>
	<path fill="none" stroke="#FFFFFF" stroke-width="0.75" stroke-miterlimit="10" d="M24.286,2.109c0,0.027-0.228,0.048-0.509,0.048
		h-2.806c-0.281,0-0.509-0.021-0.509-0.048l0,0c0-0.026,0.228-0.048,0.509-0.048h2.806C24.059,2.061,24.286,2.083,24.286,2.109
		L24.286,2.109z"/>
</g>
<g id="Wallet_Small">
</g>
<g id="Keys_Small">
</g>
</svg>
