<?xml version="1.0" encoding="utf-8"?>
<!-- Generator: Adobe Illustrator 16.0.4, SVG Export Plug-In . SVG Version: 6.00 Build 0)  -->
<!DOCTYPE svg PUBLIC "-//W3C//DTD SVG 1.1//EN" "http://www.w3.org/Graphics/SVG/1.1/DTD/svg11.dtd">
<svg version="1.1" xmlns="http://www.w3.org/2000/svg" xmlns:xlink="http://www.w3.org/1999/xlink" x="0px" y="0px" width="44px"
	 height="28px" viewBox="0 0 44 28" enable-background="new 0 0 44 28" xml:space="preserve">
<g id="Layer_1">
</g>
<g id="Bags_Small">
</g>
<g id="Toy_Small">
</g>
<g id="Bike_Small">
</g>
<g id="Wallet_Small_1_">
</g>
<g id="Phone_Small">
</g>
<g id="Wallet_Small">
	<g>
		<path fill="#FFFFFF" d="M35.509,11.696h-0.69V7.031c0-1.094-0.862-1.957-1.901-1.957h-0.52V1.957C32.397,0.862,31.59,0,30.612,0
			h-0.116L10.785,5.068c-0.005,0-0.017,0.006-0.021,0.006C9.79,5.151,9,5.986,9,7.031v18.096c0,1.095,0.862,1.957,1.901,1.957
			h22.016c1.095,0,1.956-0.862,1.956-1.957v-4.786h0.636c0.349,0,0.575-0.232,0.575-0.575v-7.489
			C36.084,11.928,35.797,11.696,35.509,11.696L35.509,11.696z M30.723,1.094c0.287,0.056,0.574,0.404,0.574,0.862v3.112H15.396
			L30.723,1.094z M33.724,25.127c0,0.459-0.348,0.862-0.807,0.862H10.901c-0.459,0-0.807-0.403-0.807-0.862V7.031
			c0-0.458,0.348-0.862,0.807-0.862h21.955c0.458,0,0.807,0.404,0.807,0.862v4.665h-5.704c-2.421,0-4.322,1.901-4.322,4.323
			c0,2.421,1.956,4.322,4.322,4.322h5.765V25.127z M34.929,19.246h-6.97c-1.73,0-3.167-1.442-3.167-3.167s1.442-3.167,3.167-3.167
			h6.97V19.246z M34.929,19.246"/>
		<path fill="#FFFFFF" d="M27.323,16.135c0,0.348,0.287,0.574,0.575,0.574h0.52c0.287,0,0.574-0.232,0.574-0.574
			c0-0.349-0.287-0.575-0.574-0.575h-0.515C27.556,15.56,27.323,15.792,27.323,16.135L27.323,16.135z M27.323,16.135"/>
	</g>
</g>
<g id="Keys_Small">
</g>
</svg>
