<?xml version="1.0" encoding="utf-8"?>
<!-- Generator: Adobe Illustrator 16.0.4, SVG Export Plug-In . SVG Version: 6.00 Build 0)  -->
<!DOCTYPE svg PUBLIC "-//W3C//DTD SVG 1.1//EN" "http://www.w3.org/Graphics/SVG/1.1/DTD/svg11.dtd">
<svg version="1.1" xmlns="http://www.w3.org/2000/svg" xmlns:xlink="http://www.w3.org/1999/xlink" x="0px" y="0px" width="44px"
	 height="28px" viewBox="0 0 44 28" enable-background="new 0 0 44 28" xml:space="preserve">
<g id="Layer_1">
</g>
<g id="Bags_Small">
	<g>
		<path fill="#FFFFFF" d="M29.955,6.535c0,0-0.154-4.57-0.161-4.636c-0.011-0.104-0.037-0.205-0.081-0.302
			c-0.109-0.248-0.307-0.438-0.561-0.535l-1.638-0.636c-0.253-0.099-0.527-0.092-0.774,0.017c-0.248,0.108-0.438,0.308-0.536,0.56
			L25.08,2.941c-0.171-0.041-0.346-0.077-0.521-0.106V2.771c0-1.516-1.232-2.75-2.749-2.75s-2.75,1.234-2.75,2.75v0.063
			c-0.178,0.03-0.352,0.065-0.522,0.106l-1.125-1.938c-0.099-0.252-0.289-0.451-0.536-0.56c-0.247-0.109-0.522-0.116-0.772-0.017
			l-1.64,0.636c-0.252,0.097-0.452,0.287-0.561,0.535c-0.042,0.093-0.067,0.191-0.079,0.291c-0.008,0.07-0.164,4.649-0.164,4.649
			c-0.696,1.167-1.097,2.53-1.097,3.985v14.886c0,0.938,0.765,1.705,1.705,1.705h15.08c0.94,0,1.706-0.767,1.706-1.705V10.522
			C31.055,9.065,30.653,7.703,29.955,6.535L29.955,6.535z M29.017,5.272c-0.179-0.197-0.367-0.382-0.566-0.561l0.511-1.316
			L29.017,5.272z M27.044,1.33c0.021-0.057,0.088-0.085,0.145-0.064l1.64,0.636c0.035,0.014,0.053,0.039,0.062,0.059
			c0.009,0.019,0.015,0.05,0.001,0.085l-1.178,2.081c-0.544-0.379-1.138-0.691-1.769-0.923L27.044,1.33z M23.64,2.785h-3.655V2.472
			c0.144-0.877,0.908-1.549,1.825-1.549l0,0c0.919,0,1.684,0.675,1.825,1.555L23.64,2.785z M14.729,1.96
			c0.009-0.02,0.025-0.045,0.061-0.059l1.638-0.636c0.059-0.021,0.123,0.007,0.146,0.064l1.1,1.874
			c-0.632,0.233-1.224,0.545-1.767,0.925l-1.181-2.082C14.712,2.01,14.719,1.98,14.729,1.96L14.729,1.96z M14.655,3.395l0.511,1.317
			c-0.197,0.177-0.387,0.364-0.565,0.561L14.655,3.395z M30.153,25.408c0,0.444-0.36,0.805-0.805,0.805h-15.08
			c-0.444,0-0.805-0.36-0.805-0.805V10.522c0-3.802,3.094-6.896,6.895-6.896h2.901c3.802,0,6.894,3.093,6.894,6.896V25.408
			L30.153,25.408z M30.153,25.408"/>
		<path fill="#FFFFFF" d="M15.7,14.225c-0.728,0-1.318,0.591-1.318,1.317v8.484c0,0.727,0.591,1.317,1.318,1.317h12.218
			c0.727,0,1.318-0.591,1.318-1.317v-8.484c0-0.727-0.592-1.317-1.318-1.317H15.7z M27.918,24.444H15.7
			c-0.23,0-0.418-0.188-0.418-0.418v-5.66h11.333v1.024h0.901v-1.024h0.819v5.66C28.336,24.257,28.148,24.444,27.918,24.444
			L27.918,24.444z M28.336,15.542v1.925H15.282v-1.925c0-0.229,0.188-0.417,0.418-0.417h12.218
			C28.148,15.125,28.336,15.312,28.336,15.542L28.336,15.542z M28.336,15.542"/>
		<path fill="#FFFFFF" d="M24.666,5.478h-5.715v2.57h5.715V5.478z M23.766,7.149h-3.914V6.378h3.914V7.149z M23.766,7.149"/>
	</g>
</g>
<g id="Toy_Small">
</g>
<g id="Bike_Small">
</g>
<g id="Wallet_Small_1_">
</g>
<g id="Phone_Small">
</g>
<g id="Wallet_Small">
</g>
<g id="Keys_Small">
</g>
</svg>
