<?xml version="1.0" encoding="utf-8"?>
<!-- Generator: Adobe Illustrator 16.0.4, SVG Export Plug-In . SVG Version: 6.00 Build 0)  -->
<!DOCTYPE svg PUBLIC "-//W3C//DTD SVG 1.1//EN" "http://www.w3.org/Graphics/SVG/1.1/DTD/svg11.dtd">
<svg version="1.1" xmlns="http://www.w3.org/2000/svg" xmlns:xlink="http://www.w3.org/1999/xlink" x="0px" y="0px" width="44px"
	 height="28px" viewBox="0 0 44 28" enable-background="new 0 0 44 28" xml:space="preserve">
<g id="Layer_1">
</g>
<g id="Bags_Small">
</g>
<g id="Toy_Small">
</g>
<g id="Bike_Small">
	<g>
		<path fill="#FFFFFF" stroke="#6D6F6F" stroke-miterlimit="10" d="M34.627,9.487c-0.823,0-1.622,0.113-2.38,0.32l-2.324-6.041
			l0.841-0.863c0.344-0.354,0.341-0.918-0.009-1.268l-1.804-1.803c-0.169-0.168-0.399-0.264-0.639-0.264h-4.507
			c-0.499,0-0.904,0.404-0.904,0.902c0,0.498,0.405,0.9,0.903,0.9h4.134l0.912,0.911l-0.623,0.641
			c-0.252,0.258-0.314,0.628-0.196,0.946c0,0.002,0,0.004,0,0.007L28.86,6.03l-12.27,1.535V5.882h2.704
			c0.498,0,0.902-0.405,0.902-0.903s-0.404-0.902-0.902-0.902h-5.41c-0.498,0-0.9,0.404-0.9,0.902s0.402,0.903,0.9,0.903h0.901v2.46
			l-1.258,2.16c-1.244-0.648-2.658-1.015-4.152-1.015c-4.971,0-9.018,4.046-9.018,9.019c0,4.972,4.047,9.017,9.018,9.017
			c4.354,0,7.998-3.102,8.837-7.213h1.238c0.371,1.049,1.374,1.803,2.55,1.803c1.491,0,2.704-1.211,2.704-2.705
			c0-0.622-0.21-1.198-0.567-1.653l5.776-8.987l0.649,1.69c-2.937,1.487-4.957,4.537-4.957,8.049c0,4.972,4.047,9.017,9.021,9.017
			c4.97,0,9.015-4.045,9.015-9.017C43.642,13.533,39.599,9.487,34.627,9.487L34.627,9.487z M9.376,25.72
			c-3.977,0-7.213-3.236-7.213-7.216c0-3.976,3.236-7.211,7.213-7.211c1.165,0,2.268,0.277,3.241,0.769l-4.019,6.893
			c-0.252,0.429-0.108,0.98,0.323,1.234c0.146,0.081,0.299,0.121,0.453,0.121h6.988C15.56,23.417,12.73,25.72,9.376,25.72
			L9.376,25.72z M10.947,18.504l3.168-5.432c1.517,1.323,2.476,3.27,2.476,5.432H10.947z M19.451,18.504h-1.057
			c0-2.83-1.311-5.357-3.356-7.011l0.65-1.118l4.249,7.284C19.728,17.906,19.562,18.192,19.451,18.504L19.451,18.504z M22.001,20.31
			c-0.498,0-0.9-0.407-0.9-0.902c0-0.499,0.402-0.903,0.9-0.903c0.497,0,0.9,0.404,0.9,0.903
			C22.901,19.902,22.498,20.31,22.001,20.31L22.001,20.31z M22.621,16.774c-0.2-0.046-0.406-0.07-0.62-0.07
			c-0.173,0-0.343,0.016-0.505,0.046l-4.34-7.439l11.157-1.395L22.621,16.774z M34.627,25.72c-3.979,0-7.216-3.236-7.216-7.216
			c0-2.743,1.543-5.135,3.805-6.354l2.568,6.679c0.139,0.357,0.48,0.578,0.843,0.578c0.104,0,0.216-0.021,0.323-0.061
			c0.464-0.18,0.696-0.699,0.52-1.164l-2.574-6.682c0.556-0.138,1.136-0.208,1.731-0.208c3.977,0,7.212,3.236,7.212,7.211
			C41.839,22.483,38.604,25.72,34.627,25.72L34.627,25.72z M34.627,25.72"/>
	</g>
</g>
<g id="Wallet_Small_1_">
</g>
<g id="Phone_Small">
</g>
<g id="Wallet_Small">
</g>
<g id="Keys_Small">
</g>
</svg>
