<?xml version="1.0" encoding="utf-8"?>
<!-- Generator: Adobe Illustrator 16.0.4, SVG Export Plug-In . SVG Version: 6.00 Build 0)  -->
<!DOCTYPE svg PUBLIC "-//W3C//DTD SVG 1.1//EN" "http://www.w3.org/Graphics/SVG/1.1/DTD/svg11.dtd">
<svg version="1.1" xmlns="http://www.w3.org/2000/svg" xmlns:xlink="http://www.w3.org/1999/xlink" x="0px" y="0px" width="44px"
	 height="28px" viewBox="0 0 44 28" enable-background="new 0 0 44 28" xml:space="preserve">
<g id="Layer_1">
</g>
<g id="Bags_Small">
</g>
<g id="Toy_Small">
	<g>
		<path fill="#FFFFFF" d="M29.32,19.736c0.189-0.765,0.286-1.556,0.286-2.361c0-0.351-0.018-0.702-0.055-1.05
			c1.398-0.226,2.469-1.44,2.469-2.902c0-1.622-1.316-2.94-2.938-2.94c-0.128,0-0.255,0.009-0.381,0.025
			c0.314-0.809,0.486-1.687,0.486-2.605c0-0.604-0.074-1.2-0.221-1.779c1.145-0.52,1.904-1.668,1.904-2.962
			c0-1.794-1.461-3.256-3.256-3.256c-1.08,0-2.081,0.539-2.681,1.409c-0.93-0.42-1.948-0.64-2.976-0.64
			c-1.026,0-2.044,0.22-2.975,0.64c-0.6-0.871-1.601-1.409-2.681-1.409c-1.794,0-3.256,1.461-3.256,3.256
			c0,1.294,0.76,2.442,1.904,2.962c-0.146,0.579-0.22,1.175-0.22,1.779c0,0.919,0.172,1.797,0.485,2.605
			c-0.125-0.016-0.252-0.025-0.381-0.025c-1.621,0-2.938,1.318-2.938,2.94c0,1.461,1.07,2.676,2.47,2.902
			c-0.037,0.348-0.056,0.699-0.056,1.05c0,0.806,0.097,1.597,0.286,2.361l0,0c-0.002,0-0.006,0.001-0.01,0.002
			c-0.056,0.006-0.11,0.013-0.166,0.021c-0.02,0.003-0.038,0.006-0.058,0.01c-0.039,0.006-0.077,0.013-0.116,0.021
			c-0.023,0.005-0.046,0.011-0.068,0.016c-0.034,0.007-0.068,0.015-0.104,0.023c-0.022,0.006-0.047,0.014-0.069,0.019
			c-0.034,0.01-0.065,0.02-0.1,0.028c-0.022,0.007-0.046,0.016-0.07,0.022c-0.03,0.01-0.063,0.021-0.095,0.031
			c-0.022,0.01-0.045,0.019-0.069,0.028c-0.03,0.011-0.061,0.022-0.091,0.036c-0.023,0.009-0.045,0.019-0.069,0.028
			c-0.029,0.014-0.059,0.026-0.088,0.041c-0.022,0.01-0.045,0.021-0.068,0.032c-0.027,0.016-0.057,0.03-0.086,0.044
			c-0.021,0.012-0.043,0.024-0.064,0.036c-0.029,0.015-0.057,0.032-0.086,0.048c-0.021,0.014-0.041,0.025-0.062,0.039
			c-0.027,0.017-0.055,0.034-0.082,0.052c-0.02,0.014-0.041,0.026-0.062,0.041c-0.026,0.019-0.053,0.038-0.079,0.058
			c-0.021,0.013-0.039,0.027-0.059,0.041c-0.025,0.021-0.054,0.042-0.08,0.064c-0.018,0.014-0.034,0.026-0.053,0.042
			c-0.028,0.021-0.053,0.046-0.081,0.07c-0.016,0.013-0.03,0.026-0.046,0.041c-0.03,0.027-0.06,0.057-0.089,0.083
			c-0.011,0.012-0.023,0.022-0.034,0.034c-0.08,0.08-0.157,0.163-0.229,0.251c-0.01,0.013-0.021,0.026-0.029,0.039
			c-0.025,0.032-0.051,0.062-0.075,0.095c-0.013,0.017-0.024,0.034-0.036,0.051c-0.022,0.029-0.043,0.058-0.062,0.087
			c-0.014,0.021-0.025,0.039-0.039,0.058c-0.019,0.029-0.036,0.057-0.055,0.086c-0.014,0.021-0.024,0.041-0.038,0.062
			c-0.016,0.028-0.032,0.056-0.048,0.085c-0.013,0.021-0.024,0.044-0.035,0.064c-0.016,0.029-0.029,0.059-0.045,0.087
			c-0.01,0.022-0.021,0.046-0.032,0.068c-0.014,0.028-0.026,0.059-0.039,0.088c-0.012,0.023-0.02,0.047-0.03,0.07
			c-0.013,0.029-0.023,0.06-0.035,0.09c-0.008,0.023-0.019,0.047-0.026,0.073c-0.011,0.029-0.021,0.059-0.031,0.089
			c-0.008,0.024-0.016,0.049-0.023,0.075c-0.009,0.03-0.018,0.062-0.026,0.093c-0.008,0.024-0.014,0.051-0.02,0.075
			c-0.009,0.031-0.016,0.062-0.022,0.095c-0.007,0.026-0.012,0.051-0.017,0.075c-0.007,0.035-0.013,0.067-0.018,0.102
			c-0.004,0.023-0.01,0.049-0.013,0.074c-0.006,0.036-0.009,0.07-0.014,0.104c-0.003,0.024-0.007,0.048-0.008,0.071
			c-0.004,0.04-0.007,0.079-0.01,0.119c-0.002,0.02-0.003,0.039-0.004,0.061c-0.003,0.061-0.005,0.121-0.005,0.182
			c0,0.124,0.006,0.25,0.02,0.371c0.187,1.832,1.738,3.269,3.62,3.269l0,0c0.058,0,0.113-0.003,0.169-0.005
			c0.014-0.001,0.026-0.001,0.041-0.002c0.052-0.003,0.103-0.008,0.152-0.012c0.004,0,0.008,0,0.013-0.001
			c1.264-0.129,2.353-0.899,2.897-2.022c1.133,0.716,2.403,1.091,3.717,1.091c1.314,0,2.586-0.375,3.719-1.091
			c0.597,1.233,1.851,2.042,3.271,2.042c2.007,0,3.64-1.633,3.64-3.64C32.589,21.476,31.153,19.923,29.32,19.736L29.32,19.736z
			 M14.178,3.162c0-1.172,0.954-2.126,2.126-2.126c0.836,0,1.597,0.492,1.94,1.254c0.065,0.144,0.187,0.253,0.335,0.303
			c0.15,0.05,0.313,0.036,0.451-0.04c0.894-0.49,1.905-0.748,2.929-0.748c1.025,0,2.037,0.258,2.931,0.748
			c0.139,0.076,0.3,0.09,0.45,0.04c0.148-0.05,0.27-0.16,0.336-0.303c0.343-0.762,1.104-1.254,1.939-1.254
			c1.173,0,2.126,0.954,2.126,2.126c0,0.977-0.659,1.824-1.604,2.062c-0.153,0.039-0.282,0.139-0.358,0.278
			c-0.076,0.138-0.09,0.302-0.039,0.45c0.212,0.627,0.317,1.284,0.317,1.951c0,3.363-2.734,6.1-6.099,6.1
			c-3.363,0-6.099-2.737-6.099-6.1c0-0.658,0.105-1.305,0.312-1.923c0.003-0.01,0.007-0.017,0.01-0.027
			c0.13-0.387,0.301-0.762,0.506-1.115c0.157-0.27,0.064-0.616-0.204-0.772c-0.27-0.156-0.615-0.064-0.771,0.206
			c-0.146,0.25-0.277,0.511-0.392,0.776C14.63,4.69,14.178,3.97,14.178,3.162L14.178,3.162z M25.217,15.919
			c0,1.288-0.359,2.492-1.012,3.392c-0.613,0.844-1.41,1.309-2.246,1.309c-0.834,0-1.631-0.465-2.244-1.309
			c-0.652-0.899-1.013-2.104-1.013-3.392c0-0.512,0.058-1.007,0.168-1.482c0.938,0.445,1.985,0.695,3.089,0.695
			c1.105,0,2.151-0.25,3.09-0.695C25.16,14.912,25.217,15.407,25.217,15.919L25.217,15.919z M17.404,23.976
			c-0.002,0.007-0.004,0.015-0.006,0.02c-0.251,0.955-1.051,1.689-2.039,1.844c-0.006,0.002-0.012,0.002-0.017,0.002
			c-0.032,0.006-0.065,0.008-0.099,0.013c-0.01,0.002-0.02,0.003-0.031,0.003c-0.028,0.004-0.059,0.006-0.089,0.007
			c-0.011,0-0.022,0.002-0.033,0.002c-0.039,0.002-0.08,0.003-0.12,0.003H14.97c-1.211,0-2.225-0.861-2.46-2.006
			c-0.033-0.162-0.051-0.331-0.051-0.504c0-0.174,0.019-0.343,0.051-0.506c0.235-1.144,1.249-2.006,2.46-2.006
			c0.049,0,0.097,0.003,0.146,0.005c0.016,0.001,0.03,0.002,0.044,0.003c0.033,0.004,0.067,0.006,0.1,0.01
			c1.25,0.144,2.222,1.206,2.222,2.494C17.48,23.571,17.454,23.777,17.404,23.976L17.404,23.976z M28.949,25.868
			c-1.169,0-2.174-0.794-2.443-1.929c-0.006-0.026-0.015-0.053-0.025-0.077c-0.033-0.166-0.051-0.335-0.051-0.504
			c0-0.275,0.044-0.545,0.133-0.807c0.1-0.295-0.06-0.615-0.354-0.715s-0.616,0.059-0.716,0.354
			c-0.127,0.377-0.191,0.769-0.191,1.168c0,0.157,0.011,0.312,0.031,0.47c-1.017,0.714-2.176,1.091-3.373,1.091
			c-1.2,0-2.361-0.38-3.38-1.096c0.02-0.153,0.03-0.308,0.03-0.465c0-1.726-1.207-3.173-2.819-3.547
			c-0.232-0.781-0.349-1.601-0.349-2.437c0-0.499,0.042-1,0.127-1.486c0.029-0.172-0.021-0.347-0.138-0.476
			c-0.117-0.129-0.287-0.197-0.46-0.184c-0.044,0.002-0.09,0.004-0.134,0.004c-0.999,0-1.811-0.812-1.811-1.81
			s0.812-1.811,1.811-1.811c0.473,0,0.917,0.181,1.256,0.507c0.485,0.671,1.082,1.258,1.763,1.729
			c-0.188,0.659-0.281,1.353-0.281,2.069c0,1.525,0.436,2.964,1.227,4.054c0.829,1.145,1.952,1.776,3.158,1.776
			c1.207,0,2.329-0.632,3.159-1.776c0.792-1.09,1.228-2.528,1.228-4.054c0-0.717-0.095-1.41-0.281-2.069
			c0.681-0.472,1.277-1.058,1.762-1.729c0.34-0.327,0.783-0.507,1.256-0.507c0.999,0,1.811,0.812,1.811,1.811
			s-0.812,1.81-1.811,1.81c-0.044,0-0.09-0.002-0.134-0.004c-0.173-0.014-0.343,0.055-0.459,0.184
			c-0.117,0.129-0.168,0.304-0.138,0.476c0.085,0.486,0.127,0.987,0.127,1.486c0,0.948-0.151,1.873-0.447,2.751
			c-0.062,0.184-0.025,0.386,0.097,0.536c0.122,0.151,0.313,0.228,0.507,0.204c0.104-0.013,0.209-0.02,0.314-0.02
			c1.385,0,2.511,1.127,2.511,2.512C31.46,24.742,30.334,25.868,28.949,25.868L28.949,25.868z M28.949,25.868"/>
		<path fill="#FFFFFF" d="M19.629,7.616c0.468,0,0.848-0.38,0.848-0.847c0-0.465-0.38-0.846-0.848-0.846
			c-0.466,0-0.846,0.381-0.846,0.846C18.783,7.236,19.163,7.616,19.629,7.616L19.629,7.616z M19.629,7.616"/>
		<path fill="#FFFFFF" d="M24.29,7.616c0.467,0,0.847-0.38,0.847-0.847c0-0.465-0.38-0.846-0.847-0.846s-0.848,0.381-0.848,0.846
			C23.442,7.236,23.823,7.616,24.29,7.616L24.29,7.616z M24.29,7.616"/>
		<path fill="#FFFFFF" d="M21.959,9.797c0.468,0,0.847-0.38,0.847-0.847c0-0.466-0.379-0.846-0.847-0.846
			c-0.466,0-0.847,0.38-0.847,0.846C21.113,9.417,21.493,9.797,21.959,9.797L21.959,9.797z M21.959,9.797"/>
		<path fill="#FFFFFF" d="M26.609,20.562l-0.009,0.009c-0.243,0.197-0.278,0.553-0.081,0.794c0.112,0.137,0.274,0.208,0.438,0.208
			c0.127,0,0.253-0.043,0.358-0.129l0.02-0.016c0.238-0.201,0.27-0.557,0.069-0.797C27.204,20.394,26.85,20.361,26.609,20.562
			L26.609,20.562z M26.609,20.562"/>
		<path fill="#FFFFFF" d="M17.139,3.868c0.149,0,0.297-0.059,0.408-0.174l0.01-0.01c0.214-0.227,0.204-0.583-0.022-0.797
			c-0.227-0.214-0.584-0.205-0.799,0.021c0,0.001-0.004,0.006-0.006,0.007c-0.214,0.225-0.205,0.581,0.02,0.796
			C16.858,3.816,16.999,3.868,17.139,3.868L17.139,3.868z M17.139,3.868"/>
	</g>
</g>
<g id="Bike_Small">
</g>
<g id="Wallet_Small_1_">
</g>
<g id="Phone_Small">
</g>
<g id="Wallet_Small">
</g>
<g id="Keys_Small">
</g>
</svg>
